<svg width="41" height="40" viewBox="0 0 41 40" fill="none" xmlns="http://www.w3.org/2000/svg">\n<path d="M41 19.9999C41 31.0456 31.9793 39.9999 20.8519 39.9999H20.5912H20.4306L20.2751 39.9962C20.1605 39.9962 20.0453 39.9887 19.9313 39.9837C19.8866 39.9837 19.8426 39.9799 19.7979 39.9768L19.558 39.9637L19.3836 39.9518L19.3237 39.9474C19.2715 39.9437 19.2192 39.9399 19.167 39.9349C19.1147 39.9299 19.0738 39.9274 19.0272 39.9231C18.9699 39.9181 18.9126 39.9131 18.8547 39.9068L18.7583 39.8974C18.6223 39.8837 18.487 39.8687 18.3516 39.8512C18.3006 39.8456 18.249 39.8387 18.1973 39.8318C18.0714 39.8164 17.9478 39.7991 17.8265 39.7799L17.6408 39.7499C17.5778 39.7406 17.5148 39.7306 17.4569 39.7199L17.2737 39.6881C17.1931 39.6743 17.1125 39.6593 17.0332 39.6437C16.9702 39.6331 16.9135 39.6212 16.8537 39.6093L16.7278 39.5831C16.6056 39.5581 16.4847 39.5318 16.3639 39.5043L16.1857 39.4631L16.0062 39.4199C15.8866 39.3912 15.7676 39.3608 15.6492 39.3287L15.4723 39.2812L15.2954 39.2318C15.1776 39.1981 15.0599 39.1637 14.9434 39.1281L14.7923 39.0818L14.7193 39.0587L14.5757 39.0124C14.4536 38.9724 14.3314 38.9318 14.2105 38.8874L14.0368 38.8249L14.0191 38.8187L13.8491 38.7562C13.6684 38.6937 13.4902 38.6218 13.3127 38.5499L13.1358 38.4781L12.9595 38.4043C12.8419 38.3556 12.7252 38.3049 12.6094 38.2524L12.4589 38.1874L12.4104 38.1656L12.292 38.1106C11.7883 37.8764 11.2958 37.6214 10.8143 37.3456L10.6638 37.2587C10.5826 37.2118 10.5014 37.1637 10.4214 37.1149L10.2955 37.0368L10.2476 37.0081L10.1286 36.9337C9.95654 36.827 9.78696 36.7174 9.6199 36.6049L9.4669 36.4999C9.39218 36.4495 9.31789 36.3983 9.24401 36.3462C9.23977 36.3436 9.23577 36.3407 9.23205 36.3374C9.15565 36.2841 9.0801 36.2304 9.00538 36.1762L8.99216 36.1668C8.91115 36.1081 8.83055 36.0487 8.75038 35.9887C8.74074 35.9824 8.73149 35.9755 8.72268 35.9681C8.65279 35.9162 8.58353 35.8637 8.5149 35.8099C8.49853 35.7987 8.48342 35.7868 8.46831 35.7743C8.40094 35.7224 8.33357 35.6699 8.26682 35.6162C8.24164 35.5968 8.21645 35.5762 8.19127 35.5537C8.12327 35.4999 8.05527 35.4443 7.9879 35.3881C7.97279 35.3768 7.95831 35.3649 7.94445 35.3524C7.8966 35.3133 7.84875 35.2733 7.8009 35.2324C7.75808 35.1968 7.71527 35.1599 7.67497 35.1237C7.60319 35.0633 7.53247 35.0008 7.46279 34.9362C7.38786 34.8706 7.3142 34.8037 7.24053 34.7368C7.16686 34.6699 7.0976 34.6062 7.02708 34.5393C6.67785 34.2131 6.34058 33.8739 6.01527 33.5218C5.97812 33.4824 5.9416 33.4424 5.90571 33.4024C5.85534 33.3481 5.8056 33.2931 5.75712 33.2374C5.70864 33.1818 5.66457 33.1337 5.61923 33.0812C5.5739 33.0287 5.51409 32.9599 5.46183 32.8987C5.3082 32.7191 5.15834 32.5368 5.01227 32.3518L4.89138 32.1974C4.77679 32.0512 4.66472 31.9029 4.55516 31.7524C4.4922 31.6662 4.42923 31.5799 4.36627 31.4924C4.36172 31.4866 4.35751 31.4806 4.35368 31.4743C4.29281 31.3881 4.23237 31.3012 4.17234 31.2137C4.11736 31.1345 4.06363 31.0547 4.01116 30.9743C3.98975 30.9431 3.96834 30.9118 3.9482 30.8781C3.91 30.8206 3.87222 30.7624 3.83486 30.7037C3.82038 30.6818 3.8059 30.6599 3.79268 30.6374C3.73853 30.5541 3.68522 30.4687 3.63275 30.3812C3.57482 30.2874 3.51816 30.1937 3.46212 30.0974C3.40608 30.0012 3.35068 29.9099 3.2959 29.8112C3.26442 29.7556 3.23294 29.7006 3.20208 29.6443L3.13471 29.5193C3.09631 29.4506 3.05916 29.3812 3.02201 29.3118C3.0132 29.2956 3.00438 29.2787 2.9962 29.2618C2.96471 29.1993 2.93323 29.1424 2.90238 29.0824C2.8646 29.0087 2.82746 28.9349 2.79031 28.8612C2.75316 28.7874 2.71727 28.7131 2.68138 28.6393C2.60918 28.4906 2.53887 28.3408 2.47046 28.1899C2.40204 28.0391 2.33551 27.8872 2.27086 27.7343C2.23875 27.6581 2.2079 27.5812 2.17516 27.5043C2.14242 27.4274 2.1122 27.3512 2.0826 27.2743C2.05238 27.1974 2.01964 27.1206 1.9932 27.0431C1.96675 26.9656 1.93464 26.8874 1.90568 26.8093C1.82173 26.5751 1.7405 26.3385 1.66201 26.0993C1.6362 26.0199 1.61101 25.9399 1.58645 25.8599C1.55057 25.7443 1.51594 25.6274 1.48194 25.5106C1.46557 25.4524 1.44857 25.3937 1.4322 25.3349C1.41583 25.2762 1.40008 25.2181 1.38434 25.1593C1.35202 25.0418 1.32138 24.9237 1.29242 24.8049C1.27731 24.7458 1.26283 24.6864 1.24897 24.6268L1.20742 24.4499C1.17971 24.3299 1.15327 24.2099 1.12808 24.0887L1.10164 23.9637C1.08968 23.9043 1.07771 23.8449 1.06701 23.7856C1.05127 23.7068 1.03616 23.6268 1.02231 23.5468C1.01097 23.4864 1.00027 23.4258 0.990195 23.3649C0.979492 23.3024 0.969419 23.2399 0.959974 23.1824C0.95053 23.1249 0.940454 23.0574 0.93101 22.9987C0.912121 22.8737 0.895122 22.7537 0.878752 22.6306C0.871826 22.5793 0.8649 22.5281 0.859233 22.4774C0.841604 22.3431 0.826493 22.2087 0.812641 22.0737C0.808863 22.042 0.805714 22.0101 0.803195 21.9781C0.796899 21.9206 0.791863 21.8637 0.786826 21.8068C0.782419 21.7606 0.778011 21.7143 0.774863 21.6681C0.771715 21.6218 0.766048 21.5643 0.76227 21.5124C0.76227 21.4924 0.759121 21.4731 0.757862 21.4531C0.753454 21.3956 0.749678 21.3374 0.745901 21.2799C0.740864 21.2004 0.736455 21.121 0.732677 21.0418C0.729529 20.9974 0.727641 20.9537 0.725752 20.9093C0.720715 20.7962 0.716307 20.6818 0.713159 20.5681L0.709381 20.4137C0.709381 20.3606 0.709381 20.3074 0.709381 20.2543C0.709381 20.1681 0.709381 20.0818 0.709381 19.9956C0.709381 19.9093 0.709381 19.8231 0.709381 19.7368C0.709381 19.6618 0.71064 19.5868 0.713159 19.5118C0.717566 19.3193 0.725123 19.1281 0.735826 18.9368C0.738975 18.8668 0.742752 18.7962 0.74779 18.7262C0.754715 18.6156 0.762271 18.5043 0.771085 18.3943C0.776123 18.3318 0.781788 18.2693 0.787455 18.2031C0.793751 18.1287 0.801308 18.0543 0.808864 17.9793L0.81453 17.9206C0.822086 17.8468 0.83027 17.7731 0.839085 17.6993C0.847899 17.6218 0.857344 17.5449 0.866788 17.4687C0.874344 17.4099 0.881899 17.3518 0.890084 17.2937C0.89827 17.2356 0.904566 17.1893 0.912122 17.1374C0.934369 16.9816 0.958504 16.8266 0.984529 16.6724C0.996492 16.6018 1.00846 16.5318 1.02105 16.4618C1.02069 16.4579 1.02069 16.4539 1.02105 16.4499C1.04749 16.3006 1.07583 16.1524 1.10668 16.0043C1.1136 15.9693 1.12053 15.9349 1.12808 15.9006C1.14823 15.8024 1.16964 15.7043 1.19105 15.6068C1.23932 15.3914 1.29158 15.1774 1.34783 14.9649C1.37049 14.8768 1.39379 14.7887 1.41834 14.7006C1.44542 14.6018 1.47375 14.5024 1.50271 14.4043C1.52853 14.3156 1.55497 14.2268 1.58268 14.1387C1.58708 14.1218 1.59212 14.1056 1.59779 14.0893C1.62612 13.9981 1.65508 13.9074 1.68468 13.8168C1.71616 13.7199 1.74764 13.6243 1.78164 13.5281C1.81564 13.4318 1.84775 13.3406 1.88238 13.2424L1.88616 13.2318C1.90757 13.1693 1.9296 13.1118 1.9529 13.0524C1.9762 12.9931 1.99068 12.9499 2.0102 12.8987C2.07316 12.7381 2.13612 12.5781 2.19908 12.4199C2.22049 12.3674 2.2419 12.3149 2.26205 12.2631C2.27149 12.2387 2.2822 12.2149 2.2929 12.1912C2.31871 12.1287 2.34579 12.0662 2.37349 12.0037C2.37853 11.9912 2.38357 11.9793 2.38923 11.9674C2.41882 11.8999 2.4522 11.8331 2.47927 11.7662C2.54664 11.6187 2.61527 11.4718 2.68642 11.3287C2.71034 11.2793 2.73427 11.2299 2.75883 11.1812C2.78338 11.1324 2.79975 11.0981 2.82179 11.0562C2.84383 11.0143 2.85642 10.9862 2.87468 10.9518C2.89294 10.9174 2.91245 10.8774 2.9326 10.8399C2.96031 10.7862 2.98864 10.7324 3.01697 10.6793C3.05412 10.6087 3.0919 10.5387 3.12968 10.4693C3.23168 10.2831 3.33662 10.0989 3.44449 9.91682C3.47283 9.86869 3.50116 9.82119 3.53012 9.77369C3.56412 9.71619 3.59875 9.65932 3.63401 9.60244C3.71271 9.47307 3.79394 9.34432 3.87642 9.21744C3.91923 9.15057 3.96331 9.08369 4.00738 9.01744C4.04201 8.96432 4.07727 8.91182 4.11253 8.85994C4.30855 8.56828 4.51213 8.2839 4.72327 8.00682C4.75601 7.96307 4.78938 7.91994 4.82275 7.87682C4.84353 7.84869 4.86431 7.82119 4.88572 7.79432L5.0066 7.63994C5.15268 7.45494 5.30253 7.27265 5.45616 7.09307C5.50842 7.03057 5.56068 6.96807 5.61356 6.91057C5.66645 6.85307 5.70486 6.80619 5.75145 6.75432C5.79805 6.70244 5.84968 6.64369 5.90005 6.58932C5.93594 6.54932 5.97246 6.50932 6.0096 6.46994C6.3261 6.12661 6.65497 5.79515 6.99623 5.47557C8.54128 6.92826 9.84613 8.6135 10.8628 10.4693C8.37989 13.0294 6.99504 16.4463 7.00001 19.9999C7.00001 20.1618 7.00001 20.3231 7.00883 20.4831C7.08227 22.6647 7.68072 24.7973 8.75416 26.7024C8.86035 26.8912 8.97096 27.077 9.08597 27.2599L28.1637 8.32244C26.11 7.05172 23.7553 6.34036 21.3367 6.25994C21.1755 6.25369 21.013 6.25119 20.85 6.25119C19.2508 6.24931 17.6635 6.52296 16.1586 7.05994C15.0868 5.18603 13.7872 3.4499 12.2889 1.89057C12.6814 1.70682 13.0801 1.53599 13.4852 1.37807L13.6527 1.31557C13.7925 1.26182 13.9335 1.21057 14.0752 1.16057C14.1337 1.13932 14.1929 1.11932 14.2521 1.09807C14.3113 1.07682 14.3698 1.05745 14.4296 1.03557C14.4895 1.0137 14.5556 0.993071 14.6217 0.973071C14.6997 0.947446 14.7785 0.923071 14.8578 0.898696L15.0568 0.836196C15.2091 0.791196 15.3623 0.747654 15.5164 0.705571C15.5598 0.693696 15.6026 0.681821 15.6461 0.671196C15.7015 0.656196 15.7575 0.641196 15.8136 0.627446C15.8696 0.613696 15.9395 0.594946 16.0025 0.579321C16.0818 0.559946 16.1611 0.540571 16.2411 0.522446L16.3595 0.499946L16.5017 0.468696C16.6793 0.429946 16.8581 0.393071 17.0382 0.359321C17.1194 0.343696 17.2006 0.328696 17.2825 0.314321H17.2913C17.3719 0.299321 17.4531 0.285571 17.5343 0.272446C17.6716 0.249946 17.8097 0.229113 17.9486 0.209946L18.0916 0.187446C18.3082 0.158071 18.5254 0.131821 18.7445 0.109321L18.8452 0.0993213C18.9044 0.0930713 18.963 0.0880713 19.0215 0.0830713C19.1084 0.0749463 19.1953 0.0674463 19.2822 0.0611963L19.3792 0.0543213C19.4358 0.0499463 19.4931 0.0455713 19.5504 0.0424463H19.5699L19.7771 0.0305713C19.8722 0.0255713 19.966 0.0211963 20.0636 0.0174463L20.26 0.0111963C20.3097 0.0111963 20.3601 0.00807129 20.4099 0.00744629H20.5509C20.651 0.00744629 20.7511 0.00744629 20.8519 0.00744629H21.1125H21.2731L21.4286 0.0111963C21.5432 0.0111963 21.6578 0.0186963 21.7724 0.0236963C21.8171 0.0236963 21.8612 0.0274463 21.9059 0.0305713C21.9856 0.0343213 22.0656 0.0386963 22.1457 0.0436963L22.3202 0.0555713L22.38 0.0599463C22.4322 0.0636963 22.4845 0.0674463 22.5368 0.0724463C22.589 0.0774463 22.6299 0.0799463 22.6765 0.0843213C22.7338 0.0893213 22.7911 0.0943213 22.849 0.100571C22.8809 0.103071 22.9131 0.106196 22.9454 0.109946C23.0814 0.123696 23.2168 0.138696 23.3521 0.156196C23.4031 0.161821 23.4547 0.168696 23.5064 0.175571C23.6323 0.191821 23.7538 0.208696 23.8772 0.227446L24.0623 0.256196C24.1253 0.265571 24.1883 0.275571 24.2462 0.286196L24.4294 0.318071C24.51 0.331821 24.5906 0.346821 24.6699 0.362446C24.7329 0.373071 24.7896 0.384946 24.8494 0.396821L24.9753 0.423071C25.0975 0.448071 25.2183 0.474321 25.3392 0.501821L25.5174 0.543071C25.5774 0.556821 25.6373 0.571196 25.6969 0.586196C25.8165 0.614946 25.9355 0.645363 26.0539 0.677446L26.2308 0.724946L26.4077 0.774321C26.5255 0.808071 26.6432 0.842446 26.7597 0.878071L26.9612 0.940571L27.162 1.00307L27.3616 1.06932C27.4945 1.11432 27.6267 1.1612 27.7583 1.2087L27.9547 1.2812C28.0089 1.3012 28.063 1.32203 28.1172 1.3437C28.2015 1.37495 28.2846 1.4062 28.369 1.4412L28.5409 1.5112L28.7336 1.5912C28.7965 1.61807 28.8595 1.64557 28.9225 1.6737C28.9854 1.70182 29.0484 1.7287 29.1113 1.75745L29.3002 1.8437C29.3632 1.87245 29.4262 1.90182 29.4891 1.93182C29.571 1.96995 29.6522 2.0087 29.7328 2.0487L29.8631 2.1112C29.9261 2.14182 29.989 2.1737 30.052 2.20495C30.1779 2.26745 30.2976 2.32995 30.4197 2.39745L30.5796 2.48432C30.6898 2.54682 30.7987 2.60495 30.9064 2.66745L31.0323 2.73932C31.1885 2.82995 31.3434 2.92245 31.4964 3.01807L31.6097 3.0887C31.645 3.11057 31.6802 3.13245 31.7149 3.15495C31.7778 3.19682 31.8458 3.2387 31.9107 3.27995C31.9566 3.30932 32.002 3.3387 32.0467 3.36932C32.0914 3.39995 32.1323 3.4262 32.1726 3.45557C32.5239 3.69224 32.8669 3.94015 33.2014 4.19932C33.2423 4.22995 33.2833 4.26182 33.3236 4.29369C33.5036 4.43453 33.681 4.57849 33.8556 4.72557L34.0319 4.87494C34.0949 4.92869 34.1578 4.98244 34.2208 5.03744C34.2598 5.07119 34.2982 5.10557 34.3366 5.14057C34.4204 5.21432 34.5029 5.28994 34.5847 5.36619C34.6345 5.41182 34.6842 5.45807 34.7333 5.50494C34.9814 5.73828 35.2229 5.97807 35.458 6.22432C35.5052 6.27307 35.5518 6.32244 35.5978 6.37182C35.6746 6.45307 35.7508 6.53494 35.8251 6.61807C35.8603 6.65619 35.895 6.69432 35.929 6.73307C35.9844 6.79557 36.0385 6.85807 36.0927 6.92057C36.1468 6.98307 36.1909 7.03369 36.2394 7.09057C36.3871 7.26349 36.5322 7.43953 36.6744 7.61869C36.7066 7.65869 36.7374 7.69932 36.7695 7.73994C36.9005 7.90661 37.0281 8.07474 37.1523 8.24432L18.7816 26.4743L13.5381 31.6793C15.5918 32.9501 17.9465 33.6615 20.3652 33.7418C20.5263 33.7481 20.6888 33.7506 20.8519 33.7506C28.5019 33.7506 34.7037 27.5943 34.7037 20.0006C34.7037 19.8387 34.7037 19.6774 34.6949 19.5174L37.5282 16.7049L40.1185 14.1331C40.1544 14.2487 40.189 14.3656 40.223 14.4824C40.2394 14.5406 40.2564 14.5993 40.2728 14.6581C40.2892 14.7168 40.3049 14.7749 40.3206 14.8337C40.3525 14.9512 40.3832 15.0693 40.4126 15.1881C40.4277 15.2477 40.4422 15.307 40.456 15.3662L40.4976 15.5431C40.5253 15.6631 40.5517 15.7831 40.5769 15.9043L40.6033 16.0293C40.6153 16.0887 40.6273 16.1481 40.638 16.2074C40.6537 16.2862 40.6688 16.3662 40.6827 16.4462C40.694 16.5066 40.7047 16.5672 40.7148 16.6281C40.7255 16.6906 40.7356 16.7531 40.745 16.8106C40.7545 16.8681 40.7645 16.9356 40.774 16.9943C40.7929 17.1168 40.8103 17.2395 40.8262 17.3624C40.8332 17.4137 40.8401 17.4649 40.8458 17.5156C40.8634 17.6499 40.8785 17.7843 40.8923 17.9193C40.8961 17.951 40.8993 17.9829 40.9018 18.0149C40.9081 18.0724 40.9131 18.1293 40.9182 18.1862C40.9226 18.2324 40.927 18.2787 40.9301 18.3249C40.9333 18.3712 40.9389 18.4287 40.9427 18.4806C40.9427 18.5006 40.9459 18.5199 40.9471 18.5399C40.9515 18.5974 40.9553 18.6556 40.9591 18.7131C40.9641 18.7926 40.9685 18.872 40.9723 18.9512C40.9723 18.9956 40.9773 19.0393 40.9792 19.0837C40.9843 19.1974 40.9887 19.3112 40.9918 19.4249L40.9956 19.5793C40.9956 19.6324 40.9956 19.6856 40.9956 19.7387C40.9985 19.8266 41 19.9137 41 19.9999Z" fill="#71A894"/>\n</svg>
